<?xml version="1.0" encoding="utf-8"?>
<svg xmlns="http://www.w3.org/2000/svg">
  <defs>
    <symbol class="icon" viewBox="0 0 1024 1024"
      xmlns="http://www.w3.org/2000/svg" id="404">
      <path d="M512 720m-48 0a48 48 0 1 0 96 0 48 48 0 1 0-96 0Z" p-id="9022" />
      <path d="M480 416v184c0 4.4 3.6 8 8 8h48c4.4 0 8-3.6 8-8V416c0-4.4-3.6-8-8-8h-48c-4.4 0-8 3.6-8 8z" p-id="9023" />
      <path d="M955.7 856l-416-720c-6.2-10.7-16.9-16-27.7-16s-21.6 5.3-27.7 16l-416 720C56 877.4 71.4 904 96 904h832c24.6 0 40-26.6 27.7-48z m-783.5-27.9L512 239.9l339.8 588.2H172.2z" p-id="9024" />
    </symbol>
    <symbol class="icon" viewBox="0 0 1024 1024"
      xmlns="http://www.w3.org/2000/svg" id="bug">
      <path d="M940 512H792V412c76.8 0 139-62.2 139-139 0-4.4-3.6-8-8-8h-60c-4.4 0-8 3.6-8 8 0 34.8-28.2 63-63 63H232c-34.8 0-63-28.2-63-63 0-4.4-3.6-8-8-8h-60c-4.4 0-8 3.6-8 8 0 76.8 62.2 139 139 139v100H84c-4.4 0-8 3.6-8 8v56c0 4.4 3.6 8 8 8h148v96c0 6.5 0.2 13 0.7 19.3C164.1 728.6 116 796.7 116 876c0 4.4 3.6 8 8 8h56c4.4 0 8-3.6 8-8 0-44.2 23.9-82.9 59.6-103.7 6 17.2 13.6 33.6 22.7 49 24.3 41.5 59 76.2 100.5 100.5S460.5 960 512 960s99.8-13.9 141.3-38.2c41.5-24.3 76.2-59 100.5-100.5 9.1-15.5 16.7-31.9 22.7-49C812.1 793.1 836 831.8 836 876c0 4.4 3.6 8 8 8h56c4.4 0 8-3.6 8-8 0-79.3-48.1-147.4-116.7-176.7 0.4-6.4 0.7-12.8 0.7-19.3v-96h148c4.4 0 8-3.6 8-8v-56c0-4.4-3.6-8-8-8zM716 680c0 36.8-9.7 72-27.8 102.9-17.7 30.3-43 55.6-73.3 73.3-20.1 11.8-42 20-64.9 24.3V484c0-4.4-3.6-8-8-8h-60c-4.4 0-8 3.6-8 8v396.5c-22.9-4.3-44.8-12.5-64.9-24.3-30.3-17.7-55.6-43-73.3-73.3C317.7 752 308 716.8 308 680V412h408v268z" p-id="8882" />
      <path d="M304 280h56c4.4 0 8-3.6 8-8 0-28.3 5.9-53.2 17.1-73.5 10.6-19.4 26-34.8 45.4-45.4C450.9 142 475.7 136 504 136h16c28.3 0 53.2 5.9 73.5 17.1 19.4 10.6 34.8 26 45.4 45.4C650 218.9 656 243.7 656 272c0 4.4 3.6 8 8 8h56c4.4 0 8-3.6 8-8 0-40-8.8-76.7-25.9-108.1-17.2-31.5-42.5-56.8-74-74C596.7 72.8 560 64 520 64h-16c-40 0-76.7 8.8-108.1 25.9-31.5 17.2-56.8 42.5-74 74C304.8 195.3 296 232 296 272c0 4.4 3.6 8 8 8z" p-id="8883" />
    </symbol>
    <symbol class="icon" viewBox="0 0 1024 1024"
      xmlns="http://www.w3.org/2000/svg"
      xmlns:xlink="http://www.w3.org/1999/xlink" id="component">
      <path d="M64 64h384v384H64V64z m0 512h384v384H64V576z m512 0h384v384H576V576z m192-128c106.039 0 192-85.961 192-192S874.039 64 768 64s-192 85.961-192 192 85.961 192 192 192z" p-id="3483" />
    </symbol>
    <symbol class="icon" viewBox="0 0 1024 1024"
      xmlns="http://www.w3.org/2000/svg" id="dashboard">
      <path d="M924.8 385.6c-22.6-53.4-54.9-101.3-96-142.4-41.1-41.1-89-73.4-142.4-96C631.1 123.8 572.5 112 512 112s-119.1 11.8-174.4 35.2c-53.4 22.6-101.3 54.9-142.4 96-41.1 41.1-73.4 89-96 142.4C75.8 440.9 64 499.5 64 560c0 132.7 58.3 257.7 159.9 343.1l1.7 1.4c5.8 4.8 13.1 7.5 20.6 7.5h531.7c7.5 0 14.8-2.7 20.6-7.5l1.7-1.4C901.7 817.7 960 692.7 960 560c0-60.5-11.9-119.1-35.2-174.4zM761.4 836H262.6C184.5 765.5 140 665.6 140 560c0-99.4 38.7-192.8 109-263 70.3-70.3 163.7-109 263-109 99.4 0 192.8 38.7 263 109 70.3 70.3 109 163.7 109 263 0 105.6-44.5 205.5-122.6 276z" p-id="8602" />
      <path d="M623.5 421.5c-3.1-3.1-8.2-3.1-11.3 0L527.7 506c-18.7-5-39.4-0.2-54.1 14.5-21.9 21.9-21.9 57.3 0 79.2 21.9 21.9 57.3 21.9 79.2 0 14.7-14.7 19.5-35.4 14.5-54.1l84.5-84.5c3.1-3.1 3.1-8.2 0-11.3l-28.3-28.3zM490 320h44c4.4 0 8-3.6 8-8v-80c0-4.4-3.6-8-8-8h-44c-4.4 0-8 3.6-8 8v80c0 4.4 3.6 8 8 8zM750 538v44c0 4.4 3.6 8 8 8h80c4.4 0 8-3.6 8-8v-44c0-4.4-3.6-8-8-8h-80c-4.4 0-8 3.6-8 8zM762.7 340.8l-31.1-31.1c-3.1-3.1-8.2-3.1-11.3 0l-56.6 56.6c-3.1 3.1-3.1 8.2 0 11.3l31.1 31.1c3.1 3.1 8.2 3.1 11.3 0l56.6-56.6c3.1-3.1 3.1-8.2 0-11.3zM304.1 309.7c-3.1-3.1-8.2-3.1-11.3 0l-31.1 31.1c-3.1 3.1-3.1 8.2 0 11.3l56.6 56.6c3.1 3.1 8.2 3.1 11.3 0l31.1-31.1c3.1-3.1 3.1-8.2 0-11.3l-56.6-56.6zM262 530h-80c-4.4 0-8 3.6-8 8v44c0 4.4 3.6 8 8 8h80c4.4 0 8-3.6 8-8v-44c0-4.4-3.6-8-8-8z" p-id="8603" />
    </symbol>
    <symbol class="icon" viewBox="0 0 1024 1024"
      xmlns="http://www.w3.org/2000/svg" id="fullscreen-exit">
      <path d="M704 864v-96c0-54.4 41.6-96 96-96h96c19.2 0 32-12.8 32-32s-12.8-32-32-32h-96c-89.6 0-160 70.4-160 160v96c0 19.2 12.8 32 32 32s32-12.8 32-32z m-64-704v96c0 89.6 70.4 160 160 160h96c19.2 0 32-12.8 32-32s-12.8-32-32-32h-96c-54.4 0-96-41.6-96-96v-96c0-19.2-12.8-32-32-32s-32 12.8-32 32z m-256 704v-96c0-89.6-70.4-160-160-160h-96c-19.2 0-32 12.8-32 32s12.8 32 32 32h96c54.4 0 96 41.6 96 96v96c0 19.2 12.8 32 32 32s32-12.8 32-32z m-64-704v96c0 54.4-41.6 96-96 96h-96c-19.2 0-32 12.8-32 32s12.8 32 32 32h96c89.6 0 160-70.4 160-160v-96c0-19.2-12.8-32-32-32s-32 12.8-32 32z" p-id="3353" />
    </symbol>
    <symbol class="icon" viewBox="0 0 1024 1024"
      xmlns="http://www.w3.org/2000/svg" id="fullscreen">
      <path d="M192 384v-96c0-54.4 41.6-96 96-96h96c19.2 0 32-12.8 32-32s-12.8-32-32-32h-96c-89.6 0-160 70.4-160 160v96c0 19.2 12.8 32 32 32s32-12.8 32-32z m-64 256v96c0 89.6 70.4 160 160 160h96c19.2 0 32-12.8 32-32s-12.8-32-32-32h-96c-54.4 0-96-41.6-96-96v-96c0-19.2-12.8-32-32-32s-32 12.8-32 32z m768-256v-96c0-89.6-70.4-160-160-160h-96c-19.2 0-32 12.8-32 32s12.8 32 32 32h96c54.4 0 96 41.6 96 96v96c0 19.2 12.8 32 32 32s32-12.8 32-32z m-64 256v96c0 54.4-41.6 96-96 96h-96c-19.2 0-32 12.8-32 32s12.8 32 32 32h96c89.6 0 160-70.4 160-160v-96c0-19.2-12.8-32-32-32s-32 12.8-32 32z" p-id="3213" />
    </symbol>
    <symbol aria-label="Arrow down" role="img" viewBox="0 0 15 15" id="keyboard-down">
      <g fill="none" stroke="currentColor" stroke-linecap="round" stroke-linejoin="round" stroke-width="1.2">
        <path d="M7.5 3.5v8M10.5 8.5l-3 3-3-3" />
      </g>
    </symbol>
    <symbol aria-label="Enter key" role="img" viewBox="0 0 15 15" id="keyboard-enter">
      <g fill="none" stroke="currentColor" stroke-linecap="round" stroke-linejoin="round" stroke-width="1.2">
        <path d="M12 3.53088v3c0 1-1 2-2 2H4M7 11.53088l-3-3 3-3" />
      </g>
    </symbol>
    <symbol aria-label="Escape key" role="img" viewBox="0 0 15 15" id="keyboard-esc">
      <g fill="none" stroke="currentColor" stroke-linecap="round" stroke-linejoin="round" stroke-width="1.2">
        <path d="M13.6167 8.936c-.1065.3583-.6883.962-1.4875.962-.7993 0-1.653-.9165-1.653-2.1258v-.5678c0-1.2548.7896-2.1016 1.653-2.1016.8634 0 1.3601.4778 1.4875 1.0724M9 6c-.1352-.4735-.7506-.9219-1.46-.8972-.7092.0246-1.344.57-1.344 1.2166s.4198.8812 1.3445.9805C8.465 7.3992 8.968 7.9337 9 8.5c.032.5663-.454 1.398-1.4595 1.398C6.6593 9.898 6 9 5.963 8.4851m-1.4748.5368c-.2635.5941-.8099.876-1.5443.876s-1.7073-.6248-1.7073-2.204v-.4603c0-1.0416.721-2.131 1.7073-2.131.9864 0 1.6425 1.031 1.5443 2.2492h-2.956" />
      </g>
    </symbol>
    <symbol aria-label="Arrow up" role="img" viewBox="0 0 15 15" id="keyboard-up">
      <g fill="none" stroke="currentColor" stroke-linecap="round" stroke-linejoin="round" stroke-width="1.2">
        <path d="M7.5 11.5v-8M10.5 6.5l-3-3-3 3" />
      </g>
    </symbol>
    <symbol class="icon" viewBox="0 0 1024 1024"
      xmlns="http://www.w3.org/2000/svg" id="link">
      <path d="M574 665.4c-3.1-3.1-8.2-3.1-11.3 0L446.5 781.6c-53.8 53.8-144.6 59.5-204 0-59.5-59.5-53.8-150.2 0-204l116.2-116.2c3.1-3.1 3.1-8.2 0-11.3l-39.8-39.8c-3.1-3.1-8.2-3.1-11.3 0L191.4 526.5c-84.6 84.6-84.6 221.5 0 306s221.5 84.6 306 0l116.2-116.2c3.1-3.1 3.1-8.2 0-11.3L574 665.4zM832.6 191.4c-84.6-84.6-221.5-84.6-306 0L410.3 307.6c-3.1 3.1-3.1 8.2 0 11.3l39.7 39.7c3.1 3.1 8.2 3.1 11.3 0l116.2-116.2c53.8-53.8 144.6-59.5 204 0 59.5 59.5 53.8 150.2 0 204L665.3 562.6c-3.1 3.1-3.1 8.2 0 11.3l39.8 39.8c3.1 3.1 8.2 3.1 11.3 0l116.2-116.2c84.5-84.6 84.5-221.5 0-306.1z" p-id="8462" />
      <path d="M610.1 372.3c-3.1-3.1-8.2-3.1-11.3 0L372.3 598.7c-3.1 3.1-3.1 8.2 0 11.3l39.6 39.6c3.1 3.1 8.2 3.1 11.3 0l226.4-226.4c3.1-3.1 3.1-8.2 0-11.3l-39.5-39.6z" p-id="8463" />
    </symbol>
    <symbol class="icon" viewBox="0 0 1024 1024"
      xmlns="http://www.w3.org/2000/svg" id="lock">
      <path d="M832 464h-68V240c0-70.7-57.3-128-128-128H388c-70.7 0-128 57.3-128 128v224h-68c-17.7 0-32 14.3-32 32v384c0 17.7 14.3 32 32 32h640c17.7 0 32-14.3 32-32V496c0-17.7-14.3-32-32-32zM332 240c0-30.9 25.1-56 56-56h248c30.9 0 56 25.1 56 56v224H332V240z m460 600H232V536h560v304z" p-id="8742" />
      <path d="M484 701v53c0 4.4 3.6 8 8 8h40c4.4 0 8-3.6 8-8v-53c12.1-8.7 20-22.9 20-39 0-26.5-21.5-48-48-48s-48 21.5-48 48c0 16.1 7.9 30.3 20 39z" p-id="8743" />
    </symbol>
    <symbol class="icon" viewBox="0 0 1024 1024"
      xmlns="http://www.w3.org/2000/svg" id="menu">
      <path d="M904 158H408c-4.4 0-8 3.6-8 8v56c0 4.4 3.6 8 8 8h496c4.4 0 8-3.6 8-8v-56c0-4.4-3.6-8-8-8zM904 582H408c-4.4 0-8 3.6-8 8v56c0 4.4 3.6 8 8 8h496c4.4 0 8-3.6 8-8v-56c0-4.4-3.6-8-8-8zM904 794H120c-4.4 0-8 3.6-8 8v56c0 4.4 3.6 8 8 8h784c4.4 0 8-3.6 8-8v-56c0-4.4-3.6-8-8-8zM904 370H120c-4.4 0-8 3.6-8 8v56c0 4.4 3.6 8 8 8h784c4.4 0 8-3.6 8-8v-56c0-4.4-3.6-8-8-8z" p-id="9163" />
    </symbol>
    <symbol class="icon" viewBox="0 0 1024 1024"
      xmlns="http://www.w3.org/2000/svg" id="search">
      <path d="M862.609 816.955L726.44 680.785l-0.059-0.056a358.907 358.907 0 0 0 56.43-91.927c18.824-44.507 28.369-91.767 28.369-140.467 0-48.701-9.545-95.96-28.369-140.467-18.176-42.973-44.19-81.56-77.319-114.689-33.13-33.129-71.717-59.144-114.69-77.32-44.507-18.825-91.767-28.37-140.467-28.37-48.701 0-95.96 9.545-140.467 28.37-42.973 18.176-81.56 44.19-114.689 77.32-33.13 33.129-59.144 71.717-77.32 114.689-18.825 44.507-28.37 91.767-28.37 140.467 0 48.7 9.545 95.96 28.37 140.467 18.176 42.974 44.19 81.561 77.32 114.69 33.129 33.129 71.717 59.144 114.689 77.319 44.507 18.824 91.767 28.369 140.467 28.369 48.7 0 95.96-9.545 140.467-28.369 32.78-13.864 62.997-32.303 90.197-54.968 0.063 0.064 0.122 0.132 0.186 0.195l136.169 136.17c6.25 6.25 14.438 9.373 22.628 9.373 8.188 0 16.38-3.125 22.627-9.372 12.496-12.496 12.496-32.758 0-45.254z m-412.274-69.466c-79.907 0-155.031-31.118-211.534-87.62-56.503-56.503-87.62-131.627-87.62-211.534s31.117-155.031 87.62-211.534c56.502-56.503 131.626-87.62 211.534-87.62s155.031 31.117 211.534 87.62c56.502 56.502 87.62 131.626 87.62 211.534s-31.118 155.031-87.62 211.534c-56.503 56.502-131.627 87.62-211.534 87.62z" p-id="2432" />
    </symbol>
  </defs>
</svg>